#!OML:ASF E:\Style6\Style6.ASF
:FULLY-SPECIFIED
:DEGREES
2964
root 0.293978 18.1117 -0.580506 38.7165 1.81898 -1.59489
lowerback 19.8695 -2.30469 6.66024
upperback 5.60575 -1.509 2.60547
thorax -5.11773 -0.76512 -0.627162
lowerneck -1.06966 -1.34275 1.3302
upperneck 12.9459 -1.21976 -5.64111
head 4.4284 -0.784992 -2.20256
rclavicle 1.07344e-014 -9.74045e-015
rhumerus 25.6085 10.7152 -86.9465
rradius 25.8928
rwrist 40.7642
rhand -7.09033 3.682
rfingers 7.12502
rthumb 18.7839 -25.4311
lclavicle 1.07344e-014 -9.74045e-015
lhumerus 28.2478 -21.9413 75.8153
lradius 26.2399
lwrist -14.8124
lhand -6.54297 22.9388
lfingers 7.12502
lthumb 19.3103 52.0001
rfemur -42.6845 6.41764 14.465
rtibia -6.52014e-014
rfoot -1.32788 -24.4599
rtoes 31.4024
lfemur -55.872 -28.7149 12.7095
ltibia 16.7167
lfoot -15.4279 42.8334
ltoes 19.4027
2965
root 0.292106 18.11 -0.58227 38.763 1.81068 -1.5717
lowerback 19.8231 -2.30519 6.65356
upperback 5.61259 -1.51545 2.60825
thorax -5.08631 -0.767419 -0.62036
lowerneck -0.503408 -1.50066 1.20742
upperneck 12.48 -1.46707 -5.42334
head 4.13729 -0.889775 -2.09153
rclavicle -2.78299e-015 -1.99779e-014
rhumerus 25.5987 10.4696 -87.1339
rradius 25.7981
rwrist 41.1347
rhand -7.08288 3.63292
rfingers 7.12502
rthumb 18.7911 -25.4794
lclavicle -2.78299e-015 -1.99779e-014
lhumerus 28.3387 -21.8332 75.8636
lradius 26.1187
lwrist -14.9163
lhand -6.57456 22.9156
lfingers 7.12502
lthumb 19.28 51.9799
rfemur -42.7546 6.40658 14.438
rtibia 3.18055e-014
rfoot -1.15494 -24.459
rtoes 30.9586
lfemur -55.9134 -28.6463 12.6718
ltibia 16.7184
lfoot -15.4729 42.7499
ltoes 19.7226
2966
root 0.288736 18.1085 -0.58455 38.7767 1.85069 -1.60449
lowerback 19.8057 -2.31497 6.72128
upperback 5.64115 -1.51779 2.61472
thorax -5.04742 -0.767516 -0.652013
lowerneck 0.335377 -1.64489 1.12428
upperneck 11.5988 -1.71234 -5.21278
head 3.65196 -0.985682 -1.97545
rclavicle 2.34566e-014 -7.42461e-014
rhumerus 25.625 10.2929 -87.2562
rradius 25.7281
rwrist 41.3582
rhand -7.10874 3.59915
rfingers 7.12502
rthumb 18.7662 -25.5156
lclavicle 2.34566e-014 -7.42461e-014
lhumerus 28.4719 -21.8486 75.7705
lradius 26.0304
lwrist -14.8784
lhand -6.56915 22.891
lfingers 7.12502
lthumb 19.2852 51.9547
rfemur -42.7737 6.40735 14.4995
rtibia -2.78299e-014
rfoot -1.21491 -24.4393
rtoes 31.1122
lfemur -55.9195 -28.5703 12.6824
ltibia 16.729
lfoot -15.3514 42.6918
ltoes 19.5858
2967
root 0.285128 18.1092 -0.585496 38.7539 1.80556 -1.61376
lowerback 19.8397 -2.29421 6.70199
upperback 5.66937 -1.49493 2.5927
thorax -5.03341 -0.755639 -0.669957
lowerneck 1.40256 -1.78335 1.15346
upperneck 10.3799 -1.95282 -5.11752
head 3.01946 -1.07383 -1.90713
rclavicle -1.13307e-014 1.89839e-014
rhumerus 25.6362 10.164 -87.3115
rradius 25.6974
rwrist 41.4533
rhand -7.09694 3.60784
rfingers 7.12502
rthumb 18.7776 -25.5058
lclavicle -1.13307e-014 1.89839e-014
lhumerus 28.5255 -21.8664 75.722
lradius 26.0373
lwrist -14.863
lhand -6.48281 22.9547
lfingers 7.12502
lthumb 19.3682 52.0102
rfemur -42.7627 6.45873 14.4886
rtibia 1.19271e-015
rfoot -1.11403 -24.438
rtoes 30.6624
lfemur -55.8943 -28.5828 12.6944
ltibia 16.75
lfoot -15.7421 42.6604
ltoes 20.2255
2968
root 0.281549 18.1091 -0.585606 38.7369 1.74063 -1.57136
lowerback 19.8548 -2.28244 6.60621
upperback 5.71616 -1.50031 2.58164
thorax -4.98965 -0.756115 -0.627285
lowerneck 2.59848 -1.92817 1.30123
upperneck 8.84191 -2.197 -5.22581
head 2.27502 -1.16086 -1.9188
rclavicle 3.18055e-015 -3.80673e-014
rhumerus 25.7054 10.1727 -87.2833
rradius 25.6912
rwrist 41.402
rhand -7.02389 3.64391
rfingers 7.12502
rthumb 18.8478 -25.4629
lclavicle 3.18055e-015 -3.80673e-014
lhumerus 28.5771 -21.7917 75.719
lradius 26.0858
lwrist -14.9363
lhand -6.28538 23.1278
lfingers 7.12502
lthumb 19.558 52.164
rfemur -42.7624 6.48975 14.4218
rtibia 1.70955e-014
rfoot -0.976803 -24.4774
rtoes 30.3525
lfemur -55.8635 -28.5478 12.5782
ltibia 16.7938
lfoot -15.8529 42.5877
ltoes 20.406
2969
root 0.277806 18.1086 -0.585763 38.6837 1.72503 -1.58784
lowerback 19.8944 -2.26445 6.62785
upperback 5.78895 -1.47411 2.57543
thorax -4.93037 -0.741081 -0.652844
lowerneck 3.87092 -2.10448 1.57948
upperneck 7.09619 -2.48223 -5.44091
head 1.47065 -1.26184 -1.98511
rclavicle -1.78906e-014 1.18277e-014
rhumerus 25.8037 10.1574 -87.218
rradius 25.7194
rwrist 41.2715
rhand -6.96878 3.59131
rfingers 7.12502
rthumb 18.9008 -25.5104
lclavicle -1.78906e-014 1.18277e-014
lhumerus 28.7321 -21.9589 75.5438
lradius 26.1799
lwrist -14.7678
lhand -6.21876 23.3153
lfingers 7.12502
lthumb 19.6221 52.3451
rfemur -42.7164 6.52479 14.4379
rtibia 5.40694e-014
rfoot -1.03063 -24.513
rtoes 30.604
lfemur -55.7165 -28.3893 12.3612
ltibia 16.818
lfoot -15.4547 42.4426
ltoes 19.815
2970
root 0.273243 18.1074 -0.585903 38.6954 1.72163 -1.63388
lowerback 19.8853 -2.22204 6.68669
upperback 5.84258 -1.41225 2.58196
thorax -4.86455 -0.709222 -0.695169
lowerneck 5.22204 -2.28612 1.89683
upperneck 5.17043 -2.77907 -5.65449
head 0.614807 -1.36301 -2.06106
rclavicle -1.68967e-014 1.59028e-015
rhumerus 25.8985 10.0031 -87.2017
rradius 25.7252
rwrist 41.2563
rhand -7.13804 3.63863
rfingers 7.12502
rthumb 18.7381 -25.4789
lclavicle -1.68967e-014 1.59028e-015
lhumerus 28.8821 -22.052 75.4905
lradius 26.2448
lwrist -14.7116
lhand -6.13051 23.2669
lfingers 7.12502
lthumb 19.7069 52.288
rfemur -42.7462 6.56685 14.4815
rtibia 5.08889e-014
rfoot -0.912592 -24.5083
rtoes 30.3978
lfemur -55.6482 -28.2246 12.2651
ltibia 16.8273
lfoot -15.1281 42.3426
ltoes 19.3514
2971
root 0.270025 18.1073 -0.586196 38.7084 1.69528 -1.62414
lowerback 19.8697 -2.18997 6.68894
upperback 5.9006 -1.37571 2.58147
thorax -4.79145 -0.689061 -0.707309
lowerneck 6.64163 -2.47401 2.20141
upperneck 3.09206 -3.08989 -5.83633
head -0.296868 -1.46755 -2.13625
rclavicle -5.76476e-015 -3.81667e-014
rhumerus 25.989 10.0186 -87.0473
rradius 25.784
rwrist 41.0679
rhand -7.33522 3.68888
rfingers 7.12502
rthumb 18.5484 -25.4468
lclavicle -5.76476e-015 -3.81667e-014
lhumerus 28.9756 -21.9923 75.5234
lradius 26.3476
lwrist -14.8225
lhand -5.9565 23.2493
lfingers 7.12502
lthumb 19.8742 52.2531
rfemur -42.7716 6.58297 14.4586
rtibia -6.75868e-015
rfoot -0.847604 -24.5088
rtoes 30.1796
lfemur -55.6077 -28.1294 12.1555
ltibia 16.8343
lfoot -15.1556 42.2335
ltoes 19.5481
2972
root 0.267242 18.1073 -0.586786 38.7397 1.64174 -1.57314
lowerback 19.8193 -2.15967 6.61435
upperback 5.9861 -1.36095 2.57956
thorax -4.67073 -0.677747 -0.673974
lowerneck 8.04709 -2.68369 2.48641
upperneck 0.949131 -3.43265 -5.98784
head -1.24633 -1.58766 -2.21102
rclavicle 3.18055e-015 1.59028e-015
rhumerus 26.1177 10.2162 -86.7778
rradius 25.9035
rwrist 40.7362
rhand -7.41417 3.68846
rfingers 7.12502
rthumb 18.4725 -25.4544
lclavicle 3.18055e-015 1.59028e-015
lhumerus 29.1311 -21.9087 75.5258
lradius 26.4169
lwrist -14.9128
lhand -5.86735 23.1878
lfingers 7.12502
lthumb 19.9599 52.1827
rfemur -42.8147 6.59031 14.3822
rtibia -5.96354e-015
rfoot -0.633199 -24.4897
rtoes 29.5351
lfemur -55.5863 -28.0313 11.9953
ltibia 16.8465
lfoot -15.0409 42.1524
ltoes 19.4175
2973
root 0.264659 18.1081 -0.586745 38.7251 1.65959 -1.57367
lowerback 19.7993 -2.18801 6.60614
upperback 6.09296 -1.40469 2.61255
thorax -4.54642 -0.694481 -0.626222
lowerneck 9.39643 -2.85397 2.65939
upperneck -1.17313 -3.73209 -6.07709
head -2.20565 -1.68889 -2.25527
rclavicle 1.90833e-014 -2.26615e-014
rhumerus 26.2748 10.4293 -86.617
rradius 25.9959
rwrist 40.5595
rhand -7.4755 3.78604
rfingers 7.12502
rthumb 18.4135 -25.3625
lclavicle 1.90833e-014 -2.26615e-014
lhumerus 29.3011 -21.8659 75.3799
lradius 26.5335
lwrist -14.8032
lhand -5.81725 23.1381
lfingers 7.12502
lthumb 20.008 52.128
rfemur -42.7912 6.58973 14.4067
rtibia 5.1684e-015
rfoot -0.462575 -24.476
rtoes 28.9412
lfemur -55.5439 -27.9782 11.9239
ltibia 16.8636
lfoot -14.8193 42.1112
ltoes 19.1324
2974
root 0.262124 18.108 -0.586937 38.7484 1.6756 -1.5888
lowerback 19.7861 -2.21054 6.62508
upperback 6.16873 -1.4332 2.65167
thorax -4.45858 -0.705295 -0.590056
lowerneck 10.5432 -3.03031 2.81327
upperneck -3.03917 -4.03496 -6.18543
head -3.07623 -1.79692 -2.30593
rclavicle 1.15295e-014 4.96962e-015
rhumerus 26.4305 10.6684 -86.4196
rradius 26.0909
rwrist 40.3942
rhand -7.53351 3.80338
rfingers 7.12502
rthumb 18.3576 -25.3504
lclavicle 1.15295e-014 4.96962e-015
lhumerus 29.4368 -21.8265 75.2777
lradius 26.6537
lwrist -14.7342
lhand -5.89902 23.0572
lfingers 7.12502
lthumb 19.9294 52.0553
rfemur -42.8153 6.59297 14.4341
rtibia -8.62725e-014
rfoot -0.323703 -24.4636
rtoes 28.5271
lfemur -55.4929 -27.783 11.7551
ltibia 16.8899
lfoot -14.4376 41.9297
ltoes 18.5662
